# xmcd CD database file
# Copyright (C) 1997 Ti Kan
# 
# Track frame offsets:
#     183
#     11803
#     20528
#     33138
#     44278
#     54888
#     67595
#     78230
#     89885
#     99165
#     112193
#     124100
#     135598
#     146595
#     157893
#     169600
#     181315
#     192430
#     202495
#     214428
# 
# Disc length: 2994 seconds
# 
# Revision: 1
# Processed by: cddbd v1.4b41PL1 Copyright (c) Steve Scherf et al.
# Submitted via: DiscPlay 4.0.4
# 
DISCID=160bb014
DTITLE=Patsy Cline - Walking after midnight
DYEAR=1900
DGENRE=
TTITLE0=Walkin' after midnight
TTITLE1=Aint't No Wheels On This Ship
TTITLE2=Fingerprints
TTITLE3=Hungry for love
TTITLE4=I can see an angel
TTITLE5=Just a closer walk wiht thee
TTITLE6=I don't wanta
TTITLE7=I've loved and lost again
TTITLE8=I love you, Honey
TTITLE9=If I could see the world (through the eyes of a child)
TTITLE10=If I could only stay asleep
TTITLE11=In care of the blues
TTITLE12=I can't forget you
TTITLE13=Just out of reach (Of my two empty arms)
TTITLE14=Let the teardrops fall
TTITLE15=Never no more
TTITLE16=Stop the world (and let me off)
TTITLE17=Three Cigarettes in an ashtray
TTITLE18=Today, Tomorrow and Forever
TTITLE19=Too many secrets
EXTD=\nURL: http://www.patsycline.com/ "PATSY CLINE HOME PAGE"\nURL: http://
EXTD=www.nola.ovik.se/pj/patsy/? "A tribute to Patsy Cline"
EXTT0=
EXTT1=
EXTT2=
EXTT3=
EXTT4=
EXTT5=
EXTT6=
EXTT7=
EXTT8=
EXTT9=
EXTT10=
EXTT11=
EXTT12=
EXTT13=
EXTT14=
EXTT15=
EXTT16=
EXTT17=
EXTT18=
EXTT19=
PLAYORDER=
